<svg width="43" height="43" viewBox="0 0 43 43" fill="none" xmlns="http://www.w3.org/2000/svg">
<path d="M21.5 39.4167C21.0819 39.4167 20.7236 39.2972 20.425 39.0583C20.1264 38.8194 19.9024 38.5059 19.7531 38.1177C19.1857 36.4455 18.4691 34.8778 17.6031 33.4146C16.767 31.9514 15.5875 30.2344 14.0646 28.2635C12.5416 26.2927 11.3024 24.4115 10.3469 22.6198C9.42116 20.8281 8.95831 18.6632 8.95831 16.125C8.95831 12.6312 10.1677 9.675 12.5864 7.25625C15.0351 4.80764 18.0062 3.58333 21.5 3.58333C24.9937 3.58333 27.95 4.80764 30.3687 7.25625C32.8173 9.675 34.0416 12.6312 34.0416 16.125C34.0416 18.8424 33.5191 21.1118 32.4739 22.9333C31.4587 24.725 30.2792 26.5017 28.9354 28.2635C27.3229 30.4135 26.0986 32.2052 25.2625 33.6385C24.4562 35.042 23.7844 36.5351 23.2469 38.1177C23.0976 38.5358 22.8587 38.8642 22.5302 39.1031C22.2316 39.3122 21.8882 39.4167 21.5 39.4167ZM21.5 33.0115C22.0076 31.9962 22.575 30.9958 23.2021 30.0104C23.859 29.025 24.8146 27.7111 26.0687 26.0687C27.3528 24.3965 28.3979 22.8587 29.2041 21.4552C30.0403 20.0219 30.4583 18.2451 30.4583 16.125C30.4583 13.6465 29.5774 11.5413 27.8156 9.80937C26.0837 8.04757 23.9785 7.16666 21.5 7.16666C19.0215 7.16666 16.9014 8.04757 15.1396 9.80937C13.4076 11.5413 12.5416 13.6465 12.5416 16.125C12.5416 18.2451 12.9448 20.0219 13.751 21.4552C14.5871 22.8587 15.6472 24.3965 16.9312 26.0687C18.1854 27.7111 19.126 29.025 19.7531 30.0104C20.4101 30.9958 20.9923 31.9962 21.5 33.0115ZM21.5 20.6042C22.7541 20.6042 23.8142 20.1712 24.6802 19.3052C25.5462 18.4392 25.9791 17.3792 25.9791 16.125C25.9791 14.8708 25.5462 13.8108 24.6802 12.9448C23.8142 12.0788 22.7541 11.6458 21.5 11.6458C20.2458 11.6458 19.1857 12.0788 18.3198 12.9448C17.4538 13.8108 17.0208 14.8708 17.0208 16.125C17.0208 17.3792 17.4538 18.4392 18.3198 19.3052C19.1857 20.1712 20.2458 20.6042 21.5 20.6042Z" fill="white"/>
</svg>
