<svg width="39" height="39" viewBox="0 0 39 39" fill="none" xmlns="http://www.w3.org/2000/svg">
<path d="M6.5 32.5C5.60625 32.5 4.84115 32.1818 4.20469 31.5453C3.56823 30.9089 3.25 30.1437 3.25 29.25V9.75C3.25 8.85625 3.56823 8.09115 4.20469 7.45469C4.84115 6.81823 5.60625 6.5 6.5 6.5H32.5C33.3937 6.5 34.1589 6.81823 34.7953 7.45469C35.4318 8.09115 35.75 8.85625 35.75 9.75V29.25C35.75 30.1437 35.4318 30.9089 34.7953 31.5453C34.1589 32.1818 33.3937 32.5 32.5 32.5H6.5ZM19.5 21.125L6.5 13V29.25H32.5V13L19.5 21.125ZM19.5 17.875L32.5 9.75H6.5L19.5 17.875ZM6.5 13V9.75V29.25V13Z" fill="white"/>
</svg>
