<svg width="34" height="34" viewBox="0 0 34 34" fill="none" xmlns="http://www.w3.org/2000/svg">
<g clip-path="url(#clip0_2_41)">
<path d="M31.1667 23.97V28.22C31.1683 28.6145 31.0875 29.0051 30.9294 29.3666C30.7713 29.7281 30.5395 30.0526 30.2488 30.3193C29.958 30.586 29.6148 30.7891 29.2411 30.9155C28.8673 31.0419 28.4713 31.0888 28.0783 31.0533C23.719 30.5797 19.5316 29.09 15.8525 26.7042C12.4296 24.5291 9.52756 21.6271 7.3525 18.2042C4.9583 14.5084 3.46835 10.3006 3.00334 5.92167C2.96793 5.52991 3.01449 5.13508 3.14004 4.7623C3.2656 4.38952 3.46739 4.04698 3.73259 3.75646C3.99778 3.46595 4.32056 3.23384 4.68037 3.0749C5.04019 2.91597 5.42915 2.8337 5.8225 2.83333H10.0725C10.76 2.82657 11.4265 3.07003 11.9478 3.51834C12.4691 3.96665 12.8096 4.58921 12.9058 5.27C13.0852 6.63009 13.4179 7.96553 13.8975 9.25083C14.0881 9.75789 14.1294 10.309 14.0164 10.8387C13.9034 11.3685 13.6409 11.8548 13.26 12.24L11.4608 14.0392C13.4775 17.5859 16.4141 20.5225 19.9608 22.5392L21.76 20.74C22.1452 20.3591 22.6315 20.0966 23.1613 19.9836C23.691 19.8706 24.2421 19.9119 24.7492 20.1025C26.0345 20.5821 27.3699 20.9148 28.73 21.0942C29.4182 21.1912 30.0467 21.5379 30.4959 22.0681C30.9452 22.5984 31.1839 23.2752 31.1667 23.97Z" stroke="white" stroke-width="4" stroke-linecap="round" stroke-linejoin="round"/>
</g>
<defs>
<clipPath id="clip0_2_41">
<rect width="34" height="34" fill="white"/>
</clipPath>
</defs>
</svg>
